<?xml version="1.0" encoding="iso-8859-1"?>
<!-- Uploaded to: SVG Repo, www.svgrepo.com, Generator: SVG Repo Mixer Tools -->
<svg version="1.1" id="Layer_1" xmlns="http://www.w3.org/2000/svg" xmlns:xlink="http://www.w3.org/1999/xlink" 
	 viewBox="0 0 512 512" xml:space="preserve">
<path style="fill:#C9D0D7;" d="M389.565,278.261h-66.783c-9.223,0-16.696-7.473-16.696-16.696V150.261
	c0-27.619-22.468-50.087-50.087-50.087s-50.087,22.468-50.087,50.087v111.304c0,9.223-7.473,16.696-16.696,16.696h-66.783
	c-9.223,0-16.696-7.473-16.696-16.696V150.261C105.739,67.408,173.147,0,256,0s150.261,67.408,150.261,150.261v111.304
	C406.261,270.788,398.788,278.261,389.565,278.261z"/>
<path style="fill:#B8C2C9;" d="M306.087,150.261v111.304c0,9.223,7.473,16.696,16.696,16.696h66.783
	c9.223,0,16.696-7.473,16.696-16.696V150.261C406.261,67.408,338.853,0,256,0v100.174
	C283.619,100.174,306.087,122.642,306.087,150.261z"/>
<path style="fill:#E79D2E;" d="M389.565,512h-267.13c-27.619,0-50.087-22.468-50.087-50.087V294.957
	c0-27.619,22.468-50.087,50.087-50.087h267.13c27.619,0,50.087,22.468,50.087,50.087v166.957
	C439.652,489.532,417.184,512,389.565,512z"/>
<path style="fill:#D8842A;" d="M389.565,244.87H256V512h133.565c27.619,0,50.087-22.468,50.087-50.087V294.957
	C439.652,267.337,417.184,244.87,389.565,244.87z"/>
<path style="fill:#6E6057;" d="M356.174,311.652c-77.609,0-135.433,0-200.348,0c-9.223,0-16.696,7.473-16.696,16.696v100.174
	c0,9.223,7.473,16.696,16.696,16.696c77.609,0,135.433,0,200.348,0c9.223,0,16.696-7.473,16.696-16.696V328.348
	C372.87,319.125,365.397,311.652,356.174,311.652z"/>
<path style="fill:#DBE9FD;" d="M172.522,345.043h33.391v66.783h-33.391V345.043z M239.304,345.043h33.391v66.783h-33.391V345.043z
	 M339.478,411.826h-33.391v-66.783h33.391V411.826z"/>
<path style="fill:#615349;" d="M356.174,311.652c-36.924,0-69.313,0-100.174,0v133.565c34.005,0,66.144,0,100.174,0
	c9.223,0,16.696-7.473,16.696-16.696V328.348C372.87,319.125,365.397,311.652,356.174,311.652z"/>
<g>
	<rect x="256" y="345.043" style="fill:#C5DCFD;" width="16.696" height="66.783"/>
	<rect x="306.087" y="345.043" style="fill:#C5DCFD;" width="33.391" height="66.783"/>
</g>
</svg>